<svg width="17" height="17" viewBox="0 0 17 17" fill="none" xmlns="http://www.w3.org/2000/svg">
<path d="M13.3189 8.90681C12.7497 13.5147 7.07617 14.0981 4.30303 11.7869H4.30206C2.4643 9.965 2.45265 6.59895 4.08448 4.54528C5.32487 3.18474 7.18885 2.97759 8.83039 3.08956L9.80075 0.215091C6.72455 -0.297767 3.16172 0.546546 1.28511 3.6293C-0.374895 6.30557 -0.256392 10.7455 1.79894 13.2202C5.87367 18.2816 15.6579 16.4732 16.1047 8.90681H13.3189Z" fill="#EAEAEA"/>
<path d="M16.1364 7.89897H13.3661C13.3321 5.54968 11.7916 3.50496 9.72461 3.21718L10.6736 0.407654C13.7041 1.14559 16.2179 4.22722 16.1364 7.89897Z" fill="#F21A05"/>
</svg>
