<svg width="18" height="17" viewBox="0 0 18 17" fill="none" xmlns="http://www.w3.org/2000/svg">
<path d="M14.9069 9.43585C14.2859 13.8525 8.09475 14.4118 5.06819 12.1962H5.0673C3.06177 10.4498 3.0493 7.22484 4.83031 5.25558C6.18366 3.95116 8.2177 3.75361 10.0094 3.86005L11.0687 1.10508C7.71164 0.613439 3.82354 1.42261 1.77614 4.37695C-0.0351641 6.94158 0.0940244 11.1976 2.33654 13.5692C6.78327 18.4206 17.4595 16.6868 17.9478 9.43495H14.9069V9.43585Z" fill="#00113D"/>
<path d="M17.9815 8.46975H14.9585C14.9211 6.21814 13.2407 4.25881 10.9849 3.98277L12.0201 1.29004C15.3274 1.99818 18.0706 4.95071 17.9815 8.46975Z" fill="#F21A05"/>
</svg>
