<svg width="158" height="39" viewBox="0 0 158 39" fill="none" xmlns="http://www.w3.org/2000/svg">
<path d="M151.907 15.8091C155.07 15.8091 157.47 18.1653 157.47 21.3778C157.47 24.3763 155.07 26.9466 151.907 26.9466C148.743 26.9466 146.235 24.3763 146.235 21.3778C146.234 18.1653 148.743 15.8091 151.907 15.8091Z" fill="#F21A05"/>
<path d="M75.0533 7.53906C73.0529 5.81094 70.2761 4.94531 66.7226 4.94531C64.1462 4.95781 61.215 5.66875 57.9337 7.07656L57.6122 5.38594L53.8726 5.59688V27.0375H58.3203V10.7891C59.4677 10.2969 60.8092 9.88594 62.3496 9.55625C63.89 9.22344 65.1902 9.05938 66.2532 9.05938C69.2162 9.05938 71.1831 9.52344 72.1507 10.4516C73.1166 11.3813 73.6004 12.8656 73.6004 14.9031L73.6449 27.0375H78.0513V14.9031C78.0513 11.725 77.0504 9.26875 75.0533 7.53906Z" fill="#EAEAEA"/>
<path d="M96.0334 23.3124L95.9745 22.7546L95.5448 22.8155L95.3921 22.8374C95.0054 22.8937 94.4341 22.9546 93.6734 23.0187C92.9144 23.0812 92.1537 23.1124 91.3946 23.1124C89.3896 23.1124 87.978 22.8577 87.1617 22.353C86.3437 21.8452 85.9363 20.8265 85.9363 19.2937V9.3124H93.683L93.6925 5.30303H85.9363V0.196777L83.2072 0.512402L81.7464 5.30303H78.4157L78.0513 9.3124H81.5315V19.2937C81.5315 24.5687 84.7269 27.2062 91.1162 27.2062C93.0512 27.2062 94.8144 27.0655 96.4026 26.7843L96.0334 23.3124Z" fill="#EAEAEA"/>
<path d="M21.5412 8.13594C19.3563 6.10313 16.3869 5.08594 12.6329 5.08594C10.1679 5.1 7.36718 5.81094 4.23065 7.21719L3.90761 5.52969L0.167969 5.74063V38.4484L3.28222 38.4594L4.61098 37.1281V30.7703H4.61735V25.5344C5.73287 26.0547 6.85954 26.4641 7.99416 26.7609C9.49639 27.1531 11.0129 27.3484 12.547 27.3484C13.0721 27.3484 13.5829 27.3281 14.0763 27.2875C17.1205 27.0422 19.595 26.0391 21.4983 24.2781C23.7118 22.2313 24.8194 19.5391 24.8194 16.1969C24.8194 12.8547 23.7261 10.1688 21.5412 8.13594ZM18.5861 21.3031C17.3958 22.6047 15.2475 23.2563 12.138 23.2563C9.93241 23.2563 7.42447 22.7063 4.61735 21.6094V10.975C7.10938 9.79219 9.61733 9.20156 12.138 9.20156C13.2328 9.20156 14.2083 9.27969 15.0629 9.4375C16.651 9.72813 17.8286 10.2891 18.5972 11.1219C19.778 12.4016 20.37 14.0938 20.37 16.1969C20.37 18.3 19.7748 20.0016 18.5861 21.3031Z" fill="#EAEAEA"/>
<path d="M108.46 27.3844C109.846 27.3406 111.105 27.1578 112.239 26.8359C110.92 27.1609 109.66 27.3406 108.46 27.3844Z" fill="#EAEAEA"/>
<path d="M119.13 5.32178V17.4577C119.13 20.6218 118.132 23.0718 116.132 24.8015C115.07 25.7202 113.791 26.3952 112.289 26.8233C112.273 26.828 112.255 26.8343 112.239 26.8358C110.922 27.1608 109.66 27.3405 108.461 27.3843C108.247 27.3921 108.027 27.3937 107.804 27.3937C107.621 27.3937 107.435 27.3905 107.249 27.3843C106.047 27.3405 104.789 27.1608 103.471 26.8358C103.455 26.8358 103.441 26.8312 103.422 26.8233C101.92 26.3952 100.64 25.7202 99.5786 24.8015C97.5783 23.0702 96.5806 20.6218 96.5806 17.4577V5.32178H101.028V17.4577C101.028 19.4983 101.512 20.9796 102.478 21.9093C103.385 22.7796 105.169 23.2421 107.833 23.2968H107.877C110.54 23.2405 112.322 22.7796 113.232 21.9093C114.198 20.9827 114.682 19.4983 114.682 17.4577V5.32178H119.13Z" fill="#EAEAEA"/>
<path d="M47.7315 17.3985C46.7989 23.8282 37.5039 24.6423 32.9607 21.4173H32.9591C29.9483 18.8751 29.9292 14.1782 32.6026 11.3126C34.6348 9.41415 37.6885 9.12509 40.3779 9.28134L41.9676 5.2704C36.9279 4.55478 31.0909 5.7329 28.0164 10.0345C25.2968 13.7688 25.4909 19.9642 28.8582 23.4173C35.5339 30.4798 51.5634 27.9563 52.2954 17.3985H47.7315Z" fill="#EAEAEA"/>
<path d="M52.3482 15.9922H47.8097C47.754 12.7141 45.2301 9.86094 41.8438 9.45937L43.3985 5.53906C48.3635 6.56875 52.4818 10.8687 52.3482 15.9922Z" fill="#F21A05"/>
<path d="M122.107 7.17471C124.494 5.73564 128.388 4.70752 132.241 4.70752C137.726 4.70752 142.962 6.84502 142.919 12.8481L142.877 20.7435V20.9903C142.877 22.8403 143.213 23.6622 145.18 23.6622H145.473V27.4044C140.699 27.4044 138.145 26.3356 138.145 22.3466C136.135 25.5544 131.947 27.4856 127.341 27.6091C122.316 27.7731 119.887 24.8138 119.887 21.6466C119.887 17.9466 123.237 13.9169 129.603 14.081L134.754 14.1638C135.927 14.2044 138.021 14.2466 138.146 12.8481C138.105 9.84658 135.215 8.81846 131.948 8.81846C128.807 8.81846 125.29 9.76377 123.489 10.8341L122.107 7.17471ZM134.63 17.8231L129.73 17.7403C126.589 17.6997 124.872 19.5497 124.872 21.1935C124.872 22.5919 126.127 23.8669 128.891 23.7435C132.367 23.5372 137.978 21.1935 138.146 17.206V16.9591C137.268 17.6185 136.095 17.8231 134.63 17.8231Z" fill="#EAEAEA"/>
</svg>
